%TF.GenerationSoftware,KiCad,Pcbnew,8.0.0*%
%TF.CreationDate,2024-04-23T20:51:33-04:00*%
%TF.ProjectId,SOL_PCB,534f4c5f-5043-4422-9e6b-696361645f70,1*%
%TF.SameCoordinates,Original*%
%TF.FileFunction,Soldermask,Top*%
%TF.FilePolarity,Negative*%
%FSLAX46Y46*%
G04 Gerber Fmt 4.6, Leading zero omitted, Abs format (unit mm)*
G04 Created by KiCad (PCBNEW 8.0.0) date 2024-04-23 20:51:33*
%MOMM*%
%LPD*%
G01*
G04 APERTURE LIST*
%ADD10R,1.700000X1.700000*%
%ADD11O,1.700000X1.700000*%
%ADD12C,1.524000*%
%ADD13C,1.930400*%
%ADD14C,2.000000*%
%ADD15C,7.000000*%
%ADD16R,1.600000X1.600000*%
%ADD17C,1.600000*%
%ADD18R,2.600000X2.600000*%
%ADD19C,2.600000*%
%ADD20O,1.600000X1.600000*%
G04 APERTURE END LIST*
D10*
%TO.C,J3*%
X83211000Y-88011000D03*
D11*
X83211000Y-85471000D03*
X83211000Y-82931000D03*
X83211000Y-80391000D03*
%TD*%
D12*
%TO.C,U7*%
X114300000Y-68199000D03*
X116840000Y-68199000D03*
X119380000Y-68199000D03*
X121920000Y-68199000D03*
X124460000Y-68199000D03*
%TD*%
D13*
%TO.C,U3*%
X192934000Y-118339500D03*
X192934000Y-115799500D03*
X192934000Y-113259500D03*
X192934000Y-110719500D03*
X192934000Y-108179500D03*
X192934000Y-105639500D03*
%TD*%
D14*
%TO.C,SW4*%
X116736000Y-123403000D03*
X110236000Y-123403000D03*
X116736000Y-118903000D03*
X110236000Y-118903000D03*
%TD*%
D12*
%TO.C,U5*%
X188341000Y-67310000D03*
X185801000Y-67310000D03*
X183261000Y-67310000D03*
%TD*%
D15*
%TO.C,REF\u002A\u002A*%
X207122000Y-64921000D03*
%TD*%
D12*
%TO.C,U8*%
X98679000Y-68199000D03*
X101219000Y-68199000D03*
X103759000Y-68199000D03*
X106299000Y-68199000D03*
X108839000Y-68199000D03*
%TD*%
D15*
%TO.C,REF\u002A\u002A*%
X207122000Y-129921000D03*
%TD*%
D16*
%TO.C,C2*%
X95314887Y-75246111D03*
D17*
X95314887Y-72746111D03*
%TD*%
D10*
%TO.C,J2*%
X90678000Y-88011000D03*
D11*
X90678000Y-85471000D03*
X90678000Y-82931000D03*
X90678000Y-80391000D03*
%TD*%
D15*
%TO.C,REF\u002A\u002A*%
X87122000Y-64921000D03*
%TD*%
%TO.C,REF\u002A\u002A*%
X87122000Y-129921000D03*
%TD*%
D14*
%TO.C,SW1*%
X148486000Y-78867000D03*
X141986000Y-78867000D03*
X148486000Y-74367000D03*
X141986000Y-74367000D03*
%TD*%
D12*
%TO.C,U6*%
X114808000Y-93091000D03*
X114808000Y-90551000D03*
X114808000Y-88011000D03*
X114808000Y-85471000D03*
X114808000Y-82931000D03*
X114808000Y-80391000D03*
X114808000Y-77851000D03*
X114808000Y-75311000D03*
X102235000Y-93091000D03*
X102235000Y-90551000D03*
X102235000Y-88011000D03*
X102235000Y-85471000D03*
X102235000Y-82931000D03*
X102235000Y-80391000D03*
X102235000Y-77851000D03*
X102235000Y-75311000D03*
%TD*%
D10*
%TO.C,J4*%
X90678000Y-112014000D03*
D11*
X90678000Y-109474000D03*
X90678000Y-106934000D03*
%TD*%
D10*
%TO.C,J5*%
X83211000Y-112014000D03*
D11*
X83211000Y-109474000D03*
X83211000Y-106934000D03*
%TD*%
D14*
%TO.C,SW3*%
X116736000Y-131953000D03*
X110236000Y-131953000D03*
X116736000Y-127453000D03*
X110236000Y-127453000D03*
%TD*%
D11*
%TO.C,U2*%
X143510000Y-133096000D03*
X143510000Y-130556000D03*
D10*
X143510000Y-128016000D03*
D11*
X143510000Y-125476000D03*
X143510000Y-122936000D03*
X143510000Y-120396000D03*
X143510000Y-117856000D03*
D10*
X143510000Y-115316000D03*
D11*
X143510000Y-112776000D03*
X143510000Y-110236000D03*
X143510000Y-107696000D03*
X143510000Y-105156000D03*
D10*
X143510000Y-102616000D03*
D11*
X143510000Y-100076000D03*
X143510000Y-97536000D03*
X143510000Y-94996000D03*
X143510000Y-92456000D03*
D10*
X143510000Y-89916000D03*
D11*
X143510000Y-87376000D03*
X143510000Y-84836000D03*
X125730000Y-84836000D03*
X125730000Y-87376000D03*
D10*
X125730000Y-89916000D03*
D11*
X125730000Y-92456000D03*
X125730000Y-94996000D03*
X125730000Y-97536000D03*
X125730000Y-100076000D03*
D10*
X125730000Y-102616000D03*
D11*
X125730000Y-105156000D03*
X125730000Y-107696000D03*
X125730000Y-110236000D03*
X125730000Y-112776000D03*
D10*
X125730000Y-115316000D03*
D11*
X125730000Y-117856000D03*
X125730000Y-120396000D03*
X125730000Y-122936000D03*
X125730000Y-125476000D03*
D10*
X125730000Y-128016000D03*
D11*
X125730000Y-130556000D03*
X125730000Y-133096000D03*
%TD*%
D14*
%TO.C,SW5*%
X116736000Y-114853000D03*
X110236000Y-114853000D03*
X116736000Y-110353000D03*
X110236000Y-110353000D03*
%TD*%
D11*
%TO.C,U1*%
X177514000Y-133096000D03*
X177514000Y-130556000D03*
D10*
X177514000Y-128016000D03*
D11*
X177514000Y-125476000D03*
X177514000Y-122936000D03*
X177514000Y-120396000D03*
X177514000Y-117856000D03*
D10*
X177514000Y-115316000D03*
D11*
X177514000Y-112776000D03*
X177514000Y-110236000D03*
X177514000Y-107696000D03*
X177514000Y-105156000D03*
D10*
X177514000Y-102616000D03*
D11*
X177514000Y-100076000D03*
X177514000Y-97536000D03*
X177514000Y-94996000D03*
X177514000Y-92456000D03*
D10*
X177514000Y-89916000D03*
D11*
X177514000Y-87376000D03*
X177514000Y-84836000D03*
X159734000Y-84836000D03*
X159734000Y-87376000D03*
D10*
X159734000Y-89916000D03*
D11*
X159734000Y-92456000D03*
X159734000Y-94996000D03*
X159734000Y-97536000D03*
X159734000Y-100076000D03*
D10*
X159734000Y-102616000D03*
D11*
X159734000Y-105156000D03*
X159734000Y-107696000D03*
X159734000Y-110236000D03*
X159734000Y-112776000D03*
D10*
X159734000Y-115316000D03*
D11*
X159734000Y-117856000D03*
X159734000Y-120396000D03*
X159734000Y-122936000D03*
X159734000Y-125476000D03*
D10*
X159734000Y-128016000D03*
D11*
X159734000Y-130556000D03*
X159734000Y-133096000D03*
%TD*%
D14*
%TO.C,SW2*%
X152931000Y-74367000D03*
X159431000Y-74367000D03*
X152931000Y-78867000D03*
X159431000Y-78867000D03*
%TD*%
D16*
%TO.C,C1*%
X96139000Y-95925000D03*
D17*
X96139000Y-98425000D03*
%TD*%
D18*
%TO.C,J1*%
X134113000Y-64770000D03*
D19*
X139113000Y-64770000D03*
X144113000Y-64770000D03*
X149113000Y-64770000D03*
X154113000Y-64770000D03*
X159113000Y-64770000D03*
X164113000Y-64770000D03*
X169113000Y-64770000D03*
%TD*%
D17*
%TO.C,R1*%
X193421000Y-61849000D03*
D20*
X178181000Y-61849000D03*
%TD*%
D13*
%TO.C,U4*%
X192934000Y-90653500D03*
X192934000Y-88113500D03*
X192934000Y-85573500D03*
X192934000Y-83033500D03*
X192934000Y-80493500D03*
X192934000Y-77953500D03*
%TD*%
M02*
