M48
; DRILL file {KiCad 8.0.0} date 2024-04-23T20:51:36-0400
; FORMAT={-:-/ absolute / inch / decimal}
; #@! TF.CreationDate,2024-04-23T20:51:36-04:00
; #@! TF.GenerationSoftware,Kicad,Pcbnew,8.0.0
; #@! TF.FileFunction,Plated,1,2,PTH
FMAT,2
INCH
; #@! TA.AperFunction,Plated,PTH,ComponentDrill
T1C0.0300
; #@! TA.AperFunction,Plated,PTH,ComponentDrill
T2C0.0315
; #@! TA.AperFunction,Plated,PTH,ComponentDrill
T3C0.0394
; #@! TA.AperFunction,Plated,PTH,ComponentDrill
T4C0.0402
; #@! TA.AperFunction,Plated,PTH,ComponentDrill
T5C0.0433
; #@! TA.AperFunction,Plated,PTH,ComponentDrill
T6C0.0512
; #@! TA.AperFunction,Plated,PTH,ComponentDrill
T7C0.1378
%
G90
G05
T1
X3.885Y-2.685
X3.985Y-2.685
X4.025Y-2.965
X4.025Y-3.065
X4.025Y-3.165
X4.025Y-3.265
X4.025Y-3.365
X4.025Y-3.465
X4.025Y-3.565
X4.025Y-3.665
X4.085Y-2.685
X4.185Y-2.685
X4.285Y-2.685
X4.5Y-2.685
X4.52Y-2.965
X4.52Y-3.065
X4.52Y-3.165
X4.52Y-3.265
X4.52Y-3.365
X4.52Y-3.465
X4.52Y-3.565
X4.52Y-3.665
X4.6Y-2.685
X4.7Y-2.685
X4.8Y-2.685
X4.9Y-2.685
X7.215Y-2.65
X7.315Y-2.65
X7.415Y-2.65
T2
X3.7526Y-2.864
X3.7526Y-2.9624
X3.785Y-3.7766
X3.785Y-3.875
X7.015Y-2.435
X7.615Y-2.435
T3
X3.276Y-3.165
X3.276Y-3.265
X3.276Y-3.365
X3.276Y-3.465
X3.276Y-4.21
X3.276Y-4.31
X3.276Y-4.41
X3.57Y-3.165
X3.57Y-3.265
X3.57Y-3.365
X3.57Y-3.465
X3.57Y-4.21
X3.57Y-4.31
X3.57Y-4.41
X7.5958Y-3.069
X7.5958Y-3.169
X7.5958Y-3.269
X7.5958Y-3.369
X7.5958Y-3.469
X7.5958Y-3.569
X7.5958Y-4.159
X7.5958Y-4.259
X7.5958Y-4.359
X7.5958Y-4.459
X7.5958Y-4.559
X7.5958Y-4.659
T4
X4.95Y-3.34
X4.95Y-3.44
X4.95Y-3.54
X4.95Y-3.64
X4.95Y-3.74
X4.95Y-3.84
X4.95Y-3.94
X4.95Y-4.04
X4.95Y-4.14
X4.95Y-4.24
X4.95Y-4.34
X4.95Y-4.44
X4.95Y-4.54
X4.95Y-4.64
X4.95Y-4.74
X4.95Y-4.84
X4.95Y-4.94
X4.95Y-5.04
X4.95Y-5.14
X4.95Y-5.24
X5.65Y-3.34
X5.65Y-3.44
X5.65Y-3.54
X5.65Y-3.64
X5.65Y-3.74
X5.65Y-3.84
X5.65Y-3.94
X5.65Y-4.04
X5.65Y-4.14
X5.65Y-4.24
X5.65Y-4.34
X5.65Y-4.44
X5.65Y-4.54
X5.65Y-4.64
X5.65Y-4.74
X5.65Y-4.84
X5.65Y-4.94
X5.65Y-5.04
X5.65Y-5.14
X5.65Y-5.24
X6.2887Y-3.34
X6.2887Y-3.44
X6.2887Y-3.54
X6.2887Y-3.64
X6.2887Y-3.74
X6.2887Y-3.84
X6.2887Y-3.94
X6.2887Y-4.04
X6.2887Y-4.14
X6.2887Y-4.24
X6.2887Y-4.34
X6.2887Y-4.44
X6.2887Y-4.54
X6.2887Y-4.64
X6.2887Y-4.74
X6.2887Y-4.84
X6.2887Y-4.94
X6.2887Y-5.04
X6.2887Y-5.14
X6.2887Y-5.24
X6.9887Y-3.34
X6.9887Y-3.44
X6.9887Y-3.54
X6.9887Y-3.64
X6.9887Y-3.74
X6.9887Y-3.84
X6.9887Y-3.94
X6.9887Y-4.04
X6.9887Y-4.14
X6.9887Y-4.24
X6.9887Y-4.34
X6.9887Y-4.44
X6.9887Y-4.54
X6.9887Y-4.64
X6.9887Y-4.74
X6.9887Y-4.84
X6.9887Y-4.94
X6.9887Y-5.04
X6.9887Y-5.14
X6.9887Y-5.24
T5
X4.34Y-4.3446
X4.34Y-4.5218
X4.34Y-4.6812
X4.34Y-4.8584
X4.34Y-5.0178
X4.34Y-5.195
X4.5959Y-4.3446
X4.5959Y-4.5218
X4.5959Y-4.6812
X4.5959Y-4.8584
X4.5959Y-5.0178
X4.5959Y-5.195
X5.59Y-2.9278
X5.59Y-3.105
X5.8459Y-2.9278
X5.8459Y-3.105
X6.0209Y-2.9278
X6.0209Y-3.105
X6.2768Y-2.9278
X6.2768Y-3.105
T6
X5.28Y-2.55
X5.4769Y-2.55
X5.6737Y-2.55
X5.8706Y-2.55
X6.0674Y-2.55
X6.2643Y-2.55
X6.4611Y-2.55
X6.658Y-2.55
T7
X3.43Y-2.5559
X3.43Y-5.115
X8.1544Y-2.5559
X8.1544Y-5.115
M30
